<svg width="36" height="36" viewBox="0 0 36 36" fill="none" xmlns="http://www.w3.org/2000/svg">
<path d="M9.36312 22.4647C9.50014 22.4645 9.63716 22.4641 9.77418 22.4636C10.1423 22.4626 10.5104 22.4634 10.8785 22.4645C11.2659 22.4655 11.6534 22.4651 12.0408 22.4648C12.6909 22.4646 13.3409 22.4656 13.991 22.4672C14.7401 22.4691 15.4892 22.4692 16.2383 22.4684C16.9625 22.4676 17.6866 22.468 18.4107 22.469C18.7173 22.4694 19.024 22.4694 19.3306 22.4691C19.6922 22.4688 20.0538 22.4695 20.4154 22.471C20.5472 22.4714 20.6791 22.4714 20.811 22.4711C22.9738 22.466 24.8643 23.1722 26.4243 24.7105C26.7801 25.0708 27.0852 25.4428 27.3515 25.875C27.3924 25.9382 27.4333 26.0014 27.4754 26.0664C28.3567 27.4869 28.7872 29.2967 28.4633 30.9507C28.1809 32.1078 27.5615 33.1902 26.5211 33.8281C26.3806 33.9082 26.2386 33.9838 26.0947 34.0576C26.0509 34.0803 26.007 34.1029 25.9619 34.1262C25.2876 34.451 24.593 34.5551 23.8512 34.5507C23.7723 34.5511 23.6933 34.5515 23.612 34.5518C23.3499 34.5528 23.0878 34.5524 22.8256 34.5519C22.6367 34.5523 22.4478 34.5527 22.2589 34.5533C21.8004 34.5545 21.3419 34.5546 20.8835 34.5542C20.5105 34.5539 20.1375 34.554 19.7645 34.5544C19.6846 34.5545 19.6846 34.5545 19.6031 34.5546C19.495 34.5547 19.3868 34.5548 19.2786 34.5549C18.2656 34.5559 17.2527 34.5555 16.2398 34.5547C15.3151 34.554 14.3903 34.5549 13.4656 34.5566C12.5139 34.5583 11.5623 34.559 10.6106 34.5585C10.0772 34.5582 9.5438 34.5584 9.01038 34.5596C8.55624 34.5607 8.10212 34.5607 7.64798 34.5595C7.41671 34.5589 7.18548 34.5589 6.95421 34.5598C5.36418 34.5657 4.02974 34.4288 2.82263 33.2705C2.77287 33.2199 2.72311 33.1693 2.67184 33.1172C2.63151 33.0768 2.59118 33.0363 2.54962 32.9947C1.59412 31.9627 1.41993 30.6555 1.46393 29.313C1.5622 27.7247 2.27836 26.2255 3.30466 25.0313C3.341 24.9848 3.37735 24.9383 3.41479 24.8904C4.85958 23.098 7.15796 22.4523 9.36312 22.4647Z" fill="white"/>
<path d="M17.1563 1.68753C17.2016 1.69885 17.2468 1.71017 17.2935 1.72183C18.8389 2.12113 20.1575 2.90809 21.3047 4.00784C21.3624 4.06105 21.42 4.11425 21.4794 4.16907C22.8883 5.51011 23.6694 7.31286 23.9766 9.21097C23.9859 9.26426 23.9951 9.31756 24.0046 9.37247C24.325 11.6062 23.6769 14.0067 22.354 15.8191C20.872 17.7792 18.7799 19.1064 16.3389 19.4678C14.8053 19.669 13.2641 19.5365 11.8125 18.9844C11.7437 18.9583 11.7437 18.9583 11.6735 18.9317C10.5544 18.497 9.59793 17.8887 8.74695 17.0425C8.65838 16.9551 8.56732 16.8703 8.476 16.7858C7.31506 15.6918 6.57576 14.1858 6.18755 12.6563C6.17514 12.6087 6.16274 12.5612 6.14995 12.5122C5.59807 10.3014 6.04839 7.78867 7.19848 5.83863C8.53156 3.66065 10.603 2.22972 13.0738 1.6348C14.386 1.33744 15.8524 1.35857 17.1563 1.68753Z" fill="white"/>
<path d="M29.6254 13.8691C29.9432 14.204 30.0401 14.5173 30.0586 14.9766C30.0389 15.4965 29.8903 15.8183 29.5248 16.1803C29.4866 16.2182 29.4483 16.2562 29.409 16.2952C29.3651 16.3386 29.3651 16.3386 29.3203 16.3828C29.368 16.3831 29.4158 16.3833 29.465 16.3836C29.9647 16.3865 30.4643 16.3914 30.9639 16.3974C31.1501 16.3994 31.3363 16.4009 31.5225 16.4019C31.7909 16.4034 32.0593 16.4067 32.3278 16.4103C32.4103 16.4104 32.4928 16.4104 32.5778 16.4105C33.127 16.4202 33.6728 16.4746 34.0973 16.8574C34.4776 17.2689 34.5562 17.6593 34.5454 18.2104C34.5017 18.6305 34.3401 18.8842 34.0488 19.1821C33.4917 19.5571 32.9968 19.5793 32.3415 19.5828C32.2116 19.5847 32.2116 19.5847 32.0791 19.5867C31.804 19.5905 31.529 19.5929 31.2539 19.5952C31.0667 19.5974 30.8796 19.6 30.6925 19.6025C30.2351 19.6084 29.7777 19.6133 29.3203 19.6172C29.3542 19.6501 29.3882 19.683 29.4232 19.717C29.4676 19.7606 29.5121 19.8043 29.5579 19.8493C29.602 19.8923 29.6461 19.9354 29.6915 19.9798C30.0343 20.347 30.0623 20.759 30.0473 21.239C29.9954 21.6874 29.8229 21.9633 29.4741 22.2451C29.049 22.5324 28.6784 22.589 28.1758 22.5546C27.5515 22.3764 27.1105 21.8694 26.6668 21.4239C26.5956 21.353 26.5244 21.2822 26.4532 21.2114C26.3048 21.0636 26.1568 20.9155 26.0091 20.7671C25.8205 20.5777 25.6308 20.3894 25.4408 20.2014C25.2938 20.0557 25.1474 19.9093 25.0012 19.7627C24.9316 19.693 24.8617 19.6236 24.7916 19.5543C24.031 18.8019 24.031 18.8019 23.946 18.209C23.946 18.1415 23.9459 18.074 23.9458 18.0044C23.9444 17.937 23.9431 17.8697 23.9417 17.8003C24.0481 17.1223 24.5262 16.7066 24.9933 16.2452C25.066 16.1725 25.1387 16.0997 25.2114 16.0268C25.363 15.8751 25.5152 15.7238 25.6677 15.5729C25.8626 15.38 26.0563 15.186 26.2498 14.9917C26.3994 14.8416 26.5496 14.6919 26.7 14.5424C26.7716 14.4711 26.8431 14.3997 26.9144 14.3281C27.0143 14.228 27.115 14.1286 27.2157 14.0293C27.2726 13.9728 27.3295 13.9162 27.3882 13.858C28.0543 13.296 28.9619 13.3023 29.6254 13.8691Z" fill="white"/>
</svg>
