<svg width="41" height="41" viewBox="0 0 41 41" fill="none" xmlns="http://www.w3.org/2000/svg">
<g clip-path="url(#clip0_220_42)">
<path d="M9.19752 23.4319C9.3099 23.4315 9.42227 23.4311 9.53465 23.4306C9.83561 23.4295 10.1366 23.4299 10.4375 23.4307C10.7553 23.4313 11.073 23.4307 11.3907 23.4303C11.924 23.4299 12.4573 23.4305 12.9906 23.4316C13.6035 23.4329 14.2163 23.4325 14.8292 23.4312C15.3593 23.4301 15.8893 23.43 16.4193 23.4306C16.7342 23.4309 17.0491 23.431 17.364 23.4302C20.4555 23.4234 22.9414 23.9722 25.2246 26.1856C26.8347 27.7897 27.7117 30.076 27.742 32.3316C27.7346 33.4647 27.375 34.3347 26.6159 35.1694C25.8408 35.9147 24.8916 36.14 23.8552 36.1362C23.7663 36.1365 23.6775 36.1368 23.5859 36.1371C23.2885 36.1379 22.9911 36.1376 22.6937 36.1373C22.4804 36.1376 22.267 36.138 22.0536 36.1385C21.5344 36.1396 21.0151 36.1397 20.4959 36.1395C20.0737 36.1394 19.6515 36.1395 19.2293 36.1398C19.1691 36.1399 19.109 36.1399 19.047 36.14C18.9248 36.1401 18.8026 36.1402 18.6804 36.1403C17.535 36.1412 16.3895 36.141 15.2441 36.1405C14.1971 36.1401 13.1501 36.141 12.1031 36.1425C11.0272 36.1441 9.95122 36.1447 8.87528 36.1444C8.27158 36.1443 7.66789 36.1445 7.06419 36.1456C6.55019 36.1465 6.03619 36.1467 5.52218 36.1457C5.26015 36.1452 4.99814 36.1453 4.73611 36.1461C4.45149 36.1469 4.16691 36.1463 3.88229 36.1453C3.80025 36.1459 3.71822 36.1464 3.6337 36.1471C2.60553 36.1394 1.71245 35.7778 0.95434 35.0802C0.195499 34.2596 -0.0457532 33.3649 -0.0350627 32.2715C-0.0344562 32.184 -0.0338498 32.0964 -0.0332249 32.0062C0.0144151 29.6315 1.12947 27.485 2.80093 25.8336C4.51522 24.1986 6.85748 23.4207 9.19752 23.4319Z" fill="white"/>
<path d="M17.6172 5.76558C17.7029 5.80842 17.7885 5.85126 17.8768 5.8954C18.5214 6.24449 19.0189 6.69941 19.5391 7.20699C19.5976 7.25963 19.6561 7.31228 19.7164 7.36652C20.9793 8.53184 21.7586 10.4104 21.8792 12.1017C21.9628 14.4821 21.4505 16.5825 19.8143 18.3729C18.2688 20.0105 16.2518 20.9344 14.0003 21.0031C11.7255 21.0342 9.66602 20.1512 8.03784 18.5681C6.73578 17.2546 5.83964 15.3989 5.76562 13.5332C5.7615 13.4484 5.75737 13.3637 5.75311 13.2763C5.7017 11.2649 6.28577 9.31178 7.60742 7.76754C7.65893 7.70446 7.71044 7.64139 7.76351 7.57641C10.1843 4.72604 14.3409 4.11321 17.6172 5.76558Z" fill="white"/>
<path d="M34.0635 8.52924C34.7331 9.02009 35.056 9.52106 35.2344 10.3301C35.2632 10.6256 35.2626 10.9174 35.2578 11.214C35.2575 11.2947 35.2571 11.3753 35.2568 11.4584C35.2555 11.7129 35.2525 11.9674 35.2494 12.2219C35.2482 12.3957 35.2471 12.5695 35.2461 12.7434C35.2435 13.1668 35.2395 13.5902 35.2344 14.0137C35.2807 14.0129 35.3271 14.0122 35.3749 14.0115C35.8608 14.0044 36.3467 13.9996 36.8326 13.9961C37.0136 13.9945 37.1945 13.9923 37.3755 13.9895C37.6367 13.9856 37.8979 13.9838 38.1591 13.9824C38.239 13.9807 38.319 13.9791 38.4014 13.9774C39.1789 13.9771 39.8076 14.1979 40.3788 14.7344C40.9555 15.3905 41.038 16.0556 41.0219 16.8974C40.9734 17.6053 40.6305 18.1011 40.1191 18.5781C39.4674 19.0927 38.7931 19.1631 37.9871 19.1543C37.908 19.1541 37.8289 19.1538 37.7474 19.1536C37.497 19.1527 37.2465 19.1507 36.9961 19.1487C36.8254 19.1479 36.6547 19.1471 36.484 19.1465C36.0675 19.1447 35.6509 19.142 35.2344 19.1387C35.2363 19.2961 35.2363 19.2961 35.2382 19.4567C35.2426 19.8492 35.2453 20.2417 35.2476 20.6343C35.2488 20.8036 35.2504 20.9729 35.2525 21.1422C35.2554 21.3867 35.2568 21.6312 35.2578 21.8757C35.2591 21.9504 35.2603 22.0251 35.2616 22.102C35.2618 22.9196 35.0688 23.5738 34.5137 24.1836C33.9684 24.7288 33.3876 24.9222 32.6268 24.9443C32.1176 24.9294 31.7428 24.8516 31.3105 24.584C31.2607 24.5559 31.2108 24.5278 31.1595 24.4989C30.6113 24.1564 30.2718 23.5993 30.1094 22.9824C30.0878 22.6863 30.0907 22.3914 30.0937 22.0947C30.094 22.01 30.0942 21.9254 30.0944 21.8382C30.0953 21.569 30.0973 21.2997 30.0994 21.0305C30.1002 20.8475 30.1009 20.6645 30.1015 20.4815C30.1033 20.0339 30.106 19.5863 30.1094 19.1387C29.9519 19.1405 29.9519 19.1405 29.7913 19.1425C29.3988 19.1468 29.0063 19.1496 28.6138 19.1519C28.4445 19.1531 28.2752 19.1547 28.1059 19.1568C27.8613 19.1597 27.6169 19.1611 27.3723 19.1621C27.2603 19.164 27.2603 19.164 27.146 19.1659C26.3344 19.1661 25.6018 18.9608 24.9844 18.418C24.478 17.8309 24.2123 17.1555 24.2411 16.3794C24.3282 15.5919 24.6508 15.0605 25.2096 14.5141C25.8327 14.0743 26.3581 13.9672 27.1143 13.9824C27.2003 13.9828 27.2864 13.9833 27.3751 13.9837C27.6476 13.9855 27.92 13.9895 28.1925 13.9936C28.3783 13.9952 28.564 13.9967 28.7498 13.998C29.203 14.0015 29.6562 14.0069 30.1094 14.0137C30.1087 13.9673 30.1079 13.9209 30.1072 13.8731C30.1001 13.3872 30.0953 12.9013 30.0918 12.4154C30.0902 12.2345 30.088 12.0535 30.0852 11.8725C30.0813 11.6113 30.0795 11.3502 30.0781 11.0889C30.0764 11.009 30.0748 10.929 30.0731 10.8467C30.0728 10.0665 30.2983 9.43799 30.8363 8.86895C31.7213 8.06129 33.0336 7.87473 34.0635 8.52924Z" fill="white"/>
</g>
<defs>
<clipPath id="clip0_220_42">
<rect width="41" height="41" fill="white"/>
</clipPath>
</defs>
</svg>
